Coordinates
version=1
nRows=68
nColumns=6
inDegrees=yes

Units are S.I. units (second, meters, Newtons, ...)
If the header above contains a line with 'inDegrees', this indicates whether rotational values are in degrees (yes) or radians (no).

endheader
time	foot_tx	hip_flexion_r	knee_angle_r	ankle_angle_r	lumbar
     34.30000000	      0.20119001	     58.92339769	    -65.99185427	     -1.04306670	    -29.64694199
     34.31000000	      0.20089371	     59.10397286	    -65.99996797	     -0.99260526	    -29.94150601
     34.32000000	      0.20067977	     59.28796709	    -65.99616271	     -0.95036270	    -30.24657419
     34.33000000	      0.20055260	     59.48406935	    -65.98136949	     -0.91714487	    -30.55394335
     34.34000000	      0.20050768	     59.69979871	    -65.95575614	     -0.89391544	    -30.85755245
     34.35000000	      0.20053151	     59.97313193	    -65.92266474	     -0.88210321	    -31.11738745
     34.36000000	      0.20058296	     60.22948132	    -65.88498748	     -0.87090080	    -31.41702492
     34.37000000	      0.20066208	     60.53596771	    -65.84398584	     -0.86615572	    -31.68179042
     34.38000000	      0.20072425	     60.91054402	    -65.80707206	     -0.86208915	    -31.89255250
     34.39000000	      0.20076598	     61.29565288	    -65.77066410	     -0.85443670	    -32.11021114
     34.40000000	      0.20077665	     61.69609151	    -65.73705086	     -0.84055984	    -32.32706910
     34.41000000	      0.20075629	     62.10274905	    -65.70493827	     -0.81938693	    -32.55131342
     34.42000000	      0.20071620	     62.50820485	    -65.67282100	     -0.79099613	    -32.78987441
     34.43000000	      0.20066912	     62.91135210	    -65.63887934	     -0.75672341	    -33.04332411
     34.44000000	      0.20062214	     63.31339555	    -65.60283865	     -0.71706113	    -33.31036199
     34.45000000	      0.20058966	     63.71651690	    -65.56229223	     -0.67450873	    -33.58828667
     34.46000000	      0.20057071	     64.12673236	    -65.51763436	     -0.62954299	    -33.87128440
     34.47000000	      0.20056365	     64.55149284	    -65.46851439	     -0.58335550	    -34.15186928
     34.48000000	      0.20056903	     64.99627234	    -65.41616876	     -0.53629617	    -34.42374543
     34.49000000	      0.20057484	     65.46994049	    -65.36147761	     -0.48843057	    -34.67818524
     34.50000000	      0.20058361	     65.97557903	    -65.30566989	     -0.43992218	    -34.91063013
     34.51000000	      0.20058246	     66.51843380	    -65.25019740	     -0.38942345	    -35.11552855
     34.52000000	      0.20057884	     67.09480168	    -65.19474266	     -0.33693260	    -35.29470310
     34.53000000	      0.20057642	     67.70486114	    -65.14088712	     -0.28097490	    -35.44504088
     34.54000000	      0.20056876	     68.33938891	    -65.08696632	     -0.21979438	    -35.57502100
     34.55000000	      0.20056918	     68.99426705	    -65.03321499	     -0.15254576	    -35.68538317
     34.56000000	      0.20057925	     69.66337163	    -64.97996186	     -0.07770338	    -35.78074653
     34.57000000	      0.20059660	     70.34520431	    -64.92718346	      0.00557295	    -35.86200786
     34.58000000	      0.20063014	     71.03996525	    -64.87328304	      0.09595566	    -35.92817886
     34.59000000	      0.20067717	     71.74611781	    -64.81634688	      0.19300325	    -35.98116973
     34.60000000	      0.20074021	     72.47041791	    -64.75662838	      0.29617734	    -36.01307201
     34.61000000	      0.20081539	     73.21169217	    -64.69180358	      0.40487513	    -36.02527802
     34.62000000	      0.20090495	     73.97433568	    -64.62133927	      0.51841227	    -36.01159719
     34.63000000	      0.20099406	     74.74771117	    -64.54466166	      0.63861127	    -35.98307159
     34.64000000	      0.20112879	     75.54051752	    -64.44862480	      0.75515637	    -35.92743160
     34.65000000	      0.20126926	     76.34735336	    -64.34257933	      0.87635327	    -35.84695254
     34.66000000	      0.20143181	     77.16512582	    -64.22031935	      0.99866570	    -35.74117782
     34.67000000	      0.20162665	     77.99010386	    -64.07488272	      1.11854320	    -35.61005958
     34.68000000	      0.20184726	     78.81392013	    -63.90854040	      1.23883174	    -35.45815566
     34.69000000	      0.20210163	     79.63224267	    -63.71795387	      1.35798794	    -35.28573937
     34.70000000	      0.20238456	     80.43430312	    -63.50347631	      1.47742759	    -35.10070990
     34.71000000	      0.20269080	     81.21175578	    -63.26631071	      1.59842432	    -34.90858415
     34.72000000	      0.20301027	     81.95933429	    -63.00889935	      1.72265306	    -34.71155657
     34.73000000	      0.20333592	     82.67188004	    -62.73478594	      1.85209936	    -34.51205906
     34.74000000	      0.20365023	     83.35013547	    -62.44933352	      1.98957201	    -34.30527777
     34.75000000	      0.20394432	     83.99463557	    -62.15699705	      2.13653893	    -34.08670468
     34.76000000	      0.20420713	     84.60165583	    -61.86326206	      2.29513976	    -33.85633017
     34.77000000	      0.20444306	     85.16341555	    -61.57045913	      2.46482966	    -33.61942248
     34.78000000	      0.20464491	     85.67296708	    -61.28317171	      2.64664958	    -33.37999377
     34.79000000	      0.20481486	     86.11992139	    -61.00454504	      2.84042919	    -33.14739448
     34.80000000	      0.20495369	     86.49745050	    -60.73829885	      3.04620735	    -32.92735096
     34.81000000	      0.20506471	     86.80578135	    -60.48764202	      3.26308374	    -32.71877392
     34.82000000	      0.20515121	     87.04019992	    -60.25448257	      3.49065935	    -32.52488531
     34.83000000	      0.20521667	     87.20857199	    -60.04206864	      3.72851237	    -32.33667702
     34.84000000	      0.20527874	     87.31055982	    -59.84771600	      3.97371101	    -32.15387954
     34.85000000	      0.20533930	     87.35125592	    -59.67381307	      4.22668873	    -31.97024723
     34.86000000	      0.20540304	     87.32755765	    -59.51669081	      4.48562866	    -31.79012359
     34.87000000	      0.20547632	     87.23877444	    -59.37332602	      4.74888676	    -31.61544584
     34.88000000	      0.20556007	     87.07737237	    -59.24160375	      5.01622788	    -31.45680423
     34.89000000	      0.20565614	     86.87865093	    -59.11319822	      5.28091025	    -31.27314120
     34.90000000	      0.20576004	     86.64030253	    -58.98765327	      5.54358947	    -31.07002140
     34.91000000	      0.20586102	     86.33141982	    -58.85944795	      5.80525905	    -30.88782359
     34.92000000	      0.20596451	     86.02973161	    -58.72621986	      6.05853725	    -30.63541505
     34.93000000	      0.20606356	     85.69559169	    -58.58374420	      6.30542102	    -30.36423319
     34.94000000	      0.20617408	     85.34265169	    -58.42074636	      6.53818683	    -30.06183617
     34.95000000	      0.20627557	     84.96192259	    -58.24127542	      6.76132708	    -29.74229606
     34.96000000	      0.20637361	     84.56073750	    -58.04011038	      6.97126048	    -29.40034037
     34.97000000	      0.20647631	     84.13809302	    -57.81096980	      7.16442797	    -29.04054918
